<?xml version="1.0" standalone="no"?>
<!DOCTYPE svg PUBLIC "-//W3C//DTD SVG 20010904//EN"
 "http://www.w3.org/TR/2001/REC-SVG-20010904/DTD/svg10.dtd">
<svg version="1.0" xmlns="http://www.w3.org/2000/svg"
 width="700.000000pt" height="700.000000pt" viewBox="0 0 700.000000 700.000000"
 preserveAspectRatio="xMidYMid meet">
<metadata>
Created by potrace 1.14, written by Peter Selinger 2001-2017
</metadata>
<g transform="translate(0.000000,700.000000) scale(0.100000,-0.100000)"
fill="#000000" stroke="none">
<path d="M0 3500 l0 -3500 3500 0 3500 0 0 3500 0 3500 -3500 0 -3500 0 0
-3500z m6020 410 c0 -2460 -1 -2540 -18 -2549 -22 -12 -2549 -1031 -2556
-1031 -5 0 -2469 992 -2533 1020 l-43 19 0 2540 0 2541 2575 0 2575 0 0 -2540z"/>
<path d="M1310 3838 l0 -2193 443 -177 c243 -97 723 -290 1068 -429 l625 -252
1067 429 1067 429 0 2193 0 2192 -2135 0 -2135 0 0 -2192z m2965 1553 l0 -295
-200 -127 -200 -127 -3 -111 -3 -111 421 0 420 0 -2 -296 -3 -296 -309 -129
-310 -129 -108 0 -108 0 0 -735 0 -735 43 17 c23 10 119 49 212 88 l170 72 3
455 2 455 420 176 420 175 -2 -916 -3 -916 -845 -352 c-465 -193 -847 -351
-850 -349 -3 2 -381 159 -840 350 -459 191 -838 350 -843 354 -4 4 -6 417 -5
917 l3 910 320 -133 c176 -73 364 -152 417 -174 l98 -41 2 -456 3 -456 90 -36
c50 -20 145 -60 213 -88 l122 -51 0 735 0 734 -107 0 -108 1 -310 128 -310
129 -3 296 -2 296 420 0 421 0 -3 112 -3 112 -202 129 -203 129 0 287 c0 158
3 291 7 294 3 4 378 6 832 5 l826 -3 0 -294z"/>
</g>
</svg>
